<svg width="30" height="30" viewBox="0 0 30 30" fill="none" xmlns="http://www.w3.org/2000/svg">
<path d="M8.35526 6.63611C7.91191 6.63611 7.48671 6.81223 7.17321 7.12573C6.85971 7.43923 6.68359 7.86442 6.68359 8.30778C6.68359 8.75113 6.85971 9.17632 7.17321 9.48982C7.48671 9.80332 7.91191 9.97944 8.35526 9.97944H21.6053C22.0486 9.97944 22.4738 9.80332 22.7873 9.48982C23.1008 9.17632 23.2769 8.75113 23.2769 8.30778C23.2769 7.86442 23.1008 7.43923 22.7873 7.12573C22.4738 6.81223 22.0486 6.63611 21.6053 6.63611H8.35526V6.63611ZM6.68859 14.9994C6.68859 14.0794 7.43359 13.3278 8.35526 13.3278H21.6053C22.0486 13.3278 22.4738 13.5039 22.7873 13.8174C23.1008 14.1309 23.2769 14.5561 23.2769 14.9994C23.2769 15.4428 23.1008 15.868 22.7873 16.1815C22.4738 16.495 22.0486 16.6711 21.6053 16.6711H8.35526C7.43359 16.6711 6.68859 15.9211 6.68859 14.9994V14.9994ZM8.37026 20.0194C7.92668 20.0194 7.50128 20.1957 7.18762 20.5093C6.87397 20.823 6.69776 21.2484 6.69776 21.6919C6.69776 22.1355 6.87397 22.5609 7.18762 22.8746C7.50128 23.1882 7.92668 23.3644 8.37026 23.3644H21.6203C22.0638 23.3644 22.4892 23.1882 22.8029 22.8746C23.1165 22.5609 23.2928 22.1355 23.2928 21.6919C23.2928 21.2484 23.1165 20.823 22.8029 20.5093C22.4892 20.1957 22.0638 20.0194 21.6203 20.0194H8.37026V20.0194Z" fill="#F8F8F8"/>
<path fill-rule="evenodd" clip-rule="evenodd" d="M0 5C0 3.67392 0.526784 2.40215 1.46447 1.46447C2.40215 0.526784 3.67392 0 5 0H25C26.3261 0 27.5979 0.526784 28.5355 1.46447C29.4732 2.40215 30 3.67392 30 5V25C30 26.3261 29.4732 27.5979 28.5355 28.5355C27.5979 29.4732 26.3261 30 25 30H5C3.67392 30 2.40215 29.4732 1.46447 28.5355C0.526784 27.5979 0 26.3261 0 25V5ZM5 3.33333H25C25.442 3.33333 25.866 3.50893 26.1785 3.82149C26.4911 4.13405 26.6667 4.55797 26.6667 5V25C26.6667 25.442 26.4911 25.866 26.1785 26.1785C25.866 26.4911 25.442 26.6667 25 26.6667H5C4.55797 26.6667 4.13405 26.4911 3.82149 26.1785C3.50893 25.866 3.33333 25.442 3.33333 25V5C3.33333 4.55797 3.50893 4.13405 3.82149 3.82149C4.13405 3.50893 4.55797 3.33333 5 3.33333V3.33333Z" fill="#F8F8F8"/>
</svg>
