<svg width="32" height="34" viewBox="0 0 32 34" fill="none" xmlns="http://www.w3.org/2000/svg">
<path d="M21.0517 2.08163C21.3351 1.98374 21.5661 1.78879 21.6963 1.53774C21.8266 1.28668 21.8458 0.999037 21.7501 0.735207C21.6544 0.471377 21.4511 0.251883 21.1829 0.122814C20.9148 -0.00625491 20.6026 -0.0348581 20.312 0.0430104C18.1163 0.713948 16.7469 2.36979 15.944 4.1439C15.8351 4.38368 15.7351 4.62683 15.6443 4.8729C15.2065 4.10993 14.6463 3.41183 13.9823 2.80202C13.0826 1.97369 12.0079 1.32318 10.8244 0.890498C9.64085 0.457814 8.37349 0.252102 7.10022 0.28601C6.44812 0.302267 5.82757 0.547352 5.36609 0.970901C4.9046 1.39445 4.63723 1.96429 4.61891 2.56333C4.582 3.73302 4.80593 4.89729 5.27693 5.98455C5.74792 7.0718 6.45603 8.05906 7.35771 8.88562L7.43262 8.95013C5.46629 9.34142 3.68933 10.3039 2.36471 11.695C1.04008 13.0862 0.238172 14.8321 0.0776556 16.6745L0.0636104 16.8336C-0.245425 20.3758 0.576172 23.924 2.42787 27.0439L3.26824 28.4589C3.29165 28.4955 3.31506 28.532 3.34315 28.5664L5.684 31.5814C6.21455 32.2639 6.90059 32.8321 7.69441 33.2464C8.48823 33.6607 9.37078 33.9112 10.2806 33.9803C11.1905 34.0495 12.1059 33.9358 12.963 33.647C13.8202 33.3582 14.5986 32.9014 15.2441 32.3082C15.3432 32.2171 15.4609 32.1449 15.5904 32.0956C15.7199 32.0462 15.8588 32.0209 15.999 32.0209C16.1392 32.0209 16.278 32.0462 16.4076 32.0956C16.5371 32.1449 16.6548 32.2171 16.7539 32.3082C17.3994 32.9014 18.1778 33.3582 19.0349 33.647C19.8921 33.9358 20.8074 34.0495 21.7173 33.9803C22.6272 33.9112 23.5097 33.6607 24.3035 33.2464C25.0974 32.8321 25.7834 32.2639 26.314 31.5814L28.6548 28.5686C28.6829 28.5335 28.7087 28.4969 28.7321 28.4589L29.5701 27.0439C31.4226 23.9242 32.245 20.3761 31.9367 16.8336L31.9226 16.6745C31.819 15.4872 31.4481 14.3326 30.8334 13.2839C30.2187 12.2352 29.3736 11.3152 28.3516 10.5821C27.3297 9.8491 26.1531 9.31904 24.8965 9.02552C23.6399 8.73201 22.3307 8.68144 21.0517 8.87702L17.1706 9.47054C17.194 8.00609 17.4749 6.35885 18.1022 4.96967C18.76 3.51812 19.7338 2.48591 21.0517 2.08163ZM8.76223 14.9843C8.40328 15.0889 8.0704 15.2577 7.78276 15.481C7.49511 15.7043 7.25837 15.9776 7.08617 16.2853C6.65078 17.0336 6.35583 18.268 6.62971 20.2829C6.6682 20.5661 6.58267 20.8517 6.39192 21.077C6.20118 21.3022 5.92085 21.4486 5.61261 21.484C5.30436 21.5193 4.99345 21.4408 4.74827 21.2655C4.5031 21.0903 4.34373 20.8328 4.30524 20.5496C3.99625 18.2615 4.28417 16.539 5.02154 15.2724C5.77061 13.9822 6.91061 13.2854 8.02252 12.9435C8.3171 12.8531 8.63871 12.8739 8.9166 13.0014C9.19448 13.1288 9.40588 13.3524 9.50428 13.623C9.60268 13.8937 9.58003 14.1891 9.44131 14.4444C9.30258 14.6997 9.05681 14.8939 8.76223 14.9843Z" fill="#EBF3F4"/>
</svg>
