<svg width="40" height="40" viewBox="0 0 40 40" fill="none" xmlns="http://www.w3.org/2000/svg">
<path d="M12.3259 9.2356C12.6206 9.2356 12.9032 9.35266 13.1116 9.56103C13.32 9.76941 13.437 10.052 13.437 10.3467V14.2723H17.4537C17.7484 14.2723 18.031 14.3893 18.2394 14.5977C18.4478 14.8061 18.5648 15.0887 18.5648 15.3834C18.5648 15.6781 18.4478 15.9607 18.2394 16.169C18.031 16.3774 17.7484 16.4945 17.4537 16.4945H13.437V20.42C13.437 20.7147 13.32 20.9973 13.1116 21.2057C12.9032 21.4141 12.6206 21.5312 12.3259 21.5312C12.0313 21.5312 11.7486 21.4141 11.5403 21.2057C11.3319 20.9973 11.2148 20.7147 11.2148 20.42V16.4945H7.19705C6.90236 16.4945 6.61975 16.3774 6.41137 16.169C6.203 15.9607 6.08594 15.6781 6.08594 15.3834C6.08594 15.0887 6.203 14.8061 6.41137 14.5977C6.61975 14.3893 6.90236 14.2723 7.19705 14.2723H11.2148V10.3467C11.2148 10.052 11.3319 9.76941 11.5403 9.56103C11.7486 9.35266 12.0313 9.2356 12.3259 9.2356Z" fill="white"/>
<path fill-rule="evenodd" clip-rule="evenodd" d="M4.44497 33.9333L0.042747 4.17889C-0.0381477 3.65962 -0.00394382 3.12893 0.142939 2.62434C0.289822 2.11975 0.545794 1.65361 0.892747 1.25889C1.23957 0.861984 1.66779 0.544416 2.1483 0.327779C2.62856 0.111429 3.14934 -0.000301931 3.67608 6.12775e-07H20.7716C21.2982 0.000107961 21.8187 0.112442 22.2985 0.329516C22.7782 0.54659 23.2062 0.863419 23.5539 1.25889C23.9008 1.65361 24.1568 2.11975 24.3037 2.62434C24.4506 3.12893 24.4848 3.65962 24.4039 4.17889L20.0005 33.9344V36.1111C20.0005 37.1278 19.6127 38.1122 18.9094 38.8444C18.5627 39.2084 18.146 39.4984 17.6843 39.697C17.2225 39.8956 16.7254 39.9986 16.2227 40H8.22275C7.20608 40 6.24053 39.5778 5.53608 38.8444C4.83376 38.108 4.44288 37.1288 4.44497 36.1111V33.9333ZM3.06275 2.35333C3.25386 2.26778 3.46275 2.22222 3.67608 2.22222H20.7705C20.9802 2.22154 21.1877 2.26569 21.3789 2.35174C21.5702 2.43778 21.7408 2.56372 21.8794 2.72111C22.0132 2.87208 22.1119 3.05082 22.1684 3.24447C22.2249 3.43812 22.2377 3.64189 22.2061 3.84111L18.0072 32.2222H6.4383L2.24052 3.85L2.23941 3.84111C2.20766 3.64163 2.22059 3.43759 2.27727 3.24371C2.33395 3.04983 2.43298 2.87096 2.56719 2.72C2.70164 2.56556 2.87052 2.44 3.06275 2.35333ZM17.3072 37.3056C17.6039 36.9967 17.7783 36.5678 17.7783 36.1111V34.9633H6.66719V36.1111C6.66719 36.5667 6.84164 36.9967 7.1383 37.3056C7.43386 37.6133 7.82497 37.7778 8.22275 37.7778H16.2227C16.6205 37.7778 17.0116 37.6133 17.3072 37.3056V37.3056Z" fill="white"/>
<path d="M40.0002 1.11111C40.0002 0.816426 39.8832 0.533811 39.6748 0.325437C39.4664 0.117063 39.1838 0 38.8891 0C38.5944 0 38.3118 0.117063 38.1034 0.325437C37.8951 0.533811 37.778 0.816426 37.778 1.11111H31.1113V3.33333H37.778V5.55556H31.1113V7.77778H37.778V10H31.1113V12.2222H37.778V14.4356L33.6036 19.2744C33.4295 19.4761 33.3337 19.7336 33.3336 20V38.8889C33.3336 39.1836 33.4506 39.4662 33.659 39.6746C33.8674 39.8829 34.15 40 34.4447 40C34.7393 40 35.022 39.8829 35.2303 39.6746C35.4387 39.4662 35.5558 39.1836 35.5558 38.8889V20.4133L39.7302 15.5744C39.9043 15.3728 40.0001 15.1153 40.0002 14.8489V1.11111Z" fill="white"/>
</svg>
