<svg width="57" height="51" viewBox="0 0 57 51" fill="none" xmlns="http://www.w3.org/2000/svg">
<path d="M20.8194 27.95C24.9243 27.95 28.2521 24.6593 28.2521 20.6C28.2521 16.5407 24.9243 13.25 20.8194 13.25C16.7144 13.25 13.3867 16.5407 13.3867 20.6C13.3867 24.6593 16.7144 27.95 20.8194 27.95Z" stroke="black" stroke-width="2" stroke-linecap="round" stroke-linejoin="round"/>
<path d="M20.8204 1C15.5637 1 10.5223 3.06499 6.80527 6.74071C3.08822 10.4164 1 15.4018 1 20.6C1 25.2354 1.99598 28.2685 4.71633 31.625L20.8204 50L36.9246 31.625C39.6449 28.2685 40.6409 25.2354 40.6409 20.6C40.6409 15.4018 38.5527 10.4164 34.8356 6.74071C31.1186 3.06499 26.0772 1 20.8204 1V1Z" stroke="black" stroke-width="2" stroke-linecap="round" stroke-linejoin="round"/>
</svg>
