<svg width="27" height="46" viewBox="0 0 27 46" fill="none" xmlns="http://www.w3.org/2000/svg">
<path d="M7.22727 10.4V7.25C7.22727 4.1 10.3636 2 13.5 2H25C25 2 17.6818 4.1 17.6818 8.3V10.4M2 17.75C2 17.193 2.22029 16.6589 2.61241 16.2651C3.00453 15.8712 3.53637 15.65 4.09091 15.65H20.8182C21.3727 15.65 21.9046 15.8712 22.2967 16.2651C22.6888 16.6589 22.9091 17.193 22.9091 17.75V37.7C22.9091 37.7 22.9091 44 16.6364 44H8.27273C2 44 2 37.7 2 37.7V17.75ZM7.22727 10.4H17.6818V15.65H7.22727V10.4Z" stroke="#F8F8F8" stroke-width="4" stroke-linecap="round" stroke-linejoin="round"/>
</svg>
