<svg width="40" height="25" viewBox="0 0 40 25" fill="none" xmlns="http://www.w3.org/2000/svg">
<path d="M37.8889 0H2.11111C0.945177 0 0 0.637994 0 1.425V1.575C0 2.36201 0.945177 3 2.11111 3H37.8889C39.0548 3 40 2.36201 40 1.575V1.425C40 0.637994 39.0548 0 37.8889 0Z" fill="#575563"/>
<path d="M37.8889 9H2.11111C0.945177 9 0 10.276 0 11.85V12.15C0 13.724 0.945177 15 2.11111 15H37.8889C39.0548 15 40 13.724 40 12.15V11.85C40 10.276 39.0548 9 37.8889 9Z" fill="#575563"/>
<path d="M37.8889 21H2.11111C0.945177 21 0 21.8507 0 22.9V23.1C0 24.1493 0.945177 25 2.11111 25H37.8889C39.0548 25 40 24.1493 40 23.1V22.9C40 21.8507 39.0548 21 37.8889 21Z" fill="#575563"/>
</svg>
