<svg width="40" height="37" viewBox="0 0 40 37" fill="none" xmlns="http://www.w3.org/2000/svg">
<path d="M11.44 26.7553L14.962 25.8156L36.1679 5.96622C36.3352 5.80767 36.4283 5.59463 36.4272 5.37311C36.4261 5.15159 36.3308 4.93937 36.1619 4.78229L34.8919 3.59466C34.8099 3.51666 34.7118 3.45456 34.6035 3.41199C34.4952 3.36942 34.3789 3.34723 34.2612 3.34671C34.1435 3.3462 34.0269 3.36737 33.9182 3.40898C33.8095 3.4506 33.7108 3.51183 33.6279 3.58911L12.478 23.3866L11.438 26.7534L11.44 26.7553ZM37.4059 1.24159L38.6759 2.43107C40.4279 4.07193 40.4439 6.71912 38.7079 8.34333L16.856 28.7994L9.32799 30.8047C8.86838 30.9237 8.37651 30.8692 7.96031 30.6531C7.54411 30.4371 7.23759 30.0771 7.10799 29.6522C7.01155 29.3468 7.01017 29.0223 7.10399 28.7162L9.29399 21.6126L31.088 1.21014C31.5024 0.824179 31.9957 0.518399 32.5392 0.310639C33.0828 0.102879 33.6656 -0.00270253 34.2537 5.25607e-05C34.8418 0.00280765 35.4234 0.113844 35.9646 0.326686C36.5058 0.539528 36.9958 0.849915 37.4059 1.23974V1.24159ZM14.368 3.37452C15.36 3.37452 16.164 4.12742 16.164 5.05607C16.1656 5.27559 16.1203 5.49325 16.0309 5.6966C15.9415 5.89995 15.8096 6.085 15.6428 6.24117C15.476 6.39734 15.2776 6.52157 15.0588 6.60676C14.8401 6.69194 14.6053 6.73641 14.368 6.73762H7.18399C5.19999 6.73762 3.59199 8.24343 3.59199 10.0989V30.2738C3.59199 32.1311 5.19999 33.6369 7.18399 33.6369H28.736C30.72 33.6369 32.33 32.1311 32.33 30.2738V23.5494C32.33 22.6208 33.1339 21.8679 34.1259 21.8679C35.1179 21.8679 35.9219 22.6208 35.9219 23.5513V30.2738C35.9219 33.9884 32.7039 37 28.736 37H7.18399C3.216 37 0 33.9884 0 30.2738V10.0989C0 6.38614 3.216 3.37452 7.18399 3.37452H14.368Z" fill="#EEE9E9"/>
</svg>
