<svg width="27" height="39" viewBox="0 0 27 39" fill="none" xmlns="http://www.w3.org/2000/svg">
<path d="M21.052 3.09265C21.7194 3.09265 22.3594 3.34335 22.8313 3.78959C23.3032 4.23584 23.5683 4.84108 23.5683 5.47216V34.0263C23.5683 34.6574 23.3032 35.2627 22.8313 35.7089C22.3594 36.1552 21.7194 36.4059 21.052 36.4059H5.95441C5.28706 36.4059 4.64703 36.1552 4.17514 35.7089C3.70325 35.2627 3.43814 34.6574 3.43814 34.0263V5.47216C3.43814 4.84108 3.70325 4.23584 4.17514 3.78959C4.64703 3.34335 5.28706 3.09265 5.95441 3.09265H21.052ZM5.95441 0.713135C4.6197 0.713135 3.33965 1.21453 2.39587 2.10702C1.45209 2.99951 0.921875 4.20999 0.921875 5.47216V34.0263C0.921875 35.2885 1.45209 36.499 2.39587 37.3915C3.33965 38.284 4.6197 38.7854 5.95441 38.7854H21.052C22.3867 38.7854 23.6668 38.284 24.6106 37.3915C25.5543 36.499 26.0846 35.2885 26.0846 34.0263V5.47216C26.0846 4.20999 25.5543 2.99951 24.6106 2.10702C23.6668 1.21453 22.3867 0.713135 21.052 0.713135L5.95441 0.713135Z" fill="#EAE5E5"/>
<path d="M13.5045 34.0265C14.1719 34.0265 14.8119 33.7758 15.2838 33.3295C15.7557 32.8833 16.0208 32.2781 16.0208 31.647C16.0208 31.0159 15.7557 30.4106 15.2838 29.9644C14.8119 29.5182 14.1719 29.2675 13.5045 29.2675C12.8372 29.2675 12.1972 29.5182 11.7253 29.9644C11.2534 30.4106 10.9883 31.0159 10.9883 31.647C10.9883 32.2781 11.2534 32.8833 11.7253 33.3295C12.1972 33.7758 12.8372 34.0265 13.5045 34.0265Z" fill="#EAE5E5"/>
</svg>
