<svg width="31" height="46" viewBox="0 0 31 46" fill="none" xmlns="http://www.w3.org/2000/svg">
<path d="M8.83789 10.965C8.83789 10.4203 9.0667 9.89794 9.47399 9.51278C9.88128 9.12763 10.4337 8.91125 11.0097 8.91125C11.5857 8.91125 12.1381 9.12763 12.5453 9.51278C12.9526 9.89794 13.1814 10.4203 13.1814 10.965V15.0725C13.1814 15.6172 12.9526 16.1396 12.5453 16.5247C12.1381 16.9099 11.5857 17.1262 11.0097 17.1262C10.4337 17.1262 9.88128 16.9099 9.47399 16.5247C9.0667 16.1396 8.83789 15.6172 8.83789 15.0725V10.965ZM11.0097 25.3412C10.4337 25.3412 9.88128 25.5576 9.47399 25.9428C9.0667 26.3279 8.83789 26.8503 8.83789 27.395V31.5025C8.83789 32.0472 9.0667 32.5695 9.47399 32.9547C9.88128 33.3398 10.4337 33.5562 11.0097 33.5562C11.5857 33.5562 12.1381 33.3398 12.5453 32.9547C12.9526 32.5695 13.1814 32.0472 13.1814 31.5025V27.395C13.1814 26.8503 12.9526 26.3279 12.5453 25.9428C12.1381 25.5576 11.5857 25.3412 11.0097 25.3412Z" fill="white"/>
<path fill-rule="evenodd" clip-rule="evenodd" d="M0.152344 6.85753C0.152344 5.22347 0.838779 3.65633 2.06064 2.50088C3.2825 1.34542 4.93971 0.696289 6.66768 0.696289H24.0419C25.7699 0.696289 27.4271 1.34542 28.649 2.50088C29.8708 3.65633 30.5572 5.22347 30.5572 6.85753V39.7175C30.5572 41.3516 29.8708 42.9187 28.649 44.0741C27.4271 45.2296 25.7699 45.8787 24.0419 45.8787H6.66768C4.93971 45.8787 3.2825 45.2296 2.06064 44.0741C0.838779 42.9187 0.152344 41.3516 0.152344 39.7175V6.85753ZM6.66768 4.80378H24.0419C24.6179 4.80378 25.1703 5.02016 25.5776 5.40531C25.9849 5.79046 26.2137 6.31284 26.2137 6.85753V19.18H4.4959V6.85753C4.4959 6.31284 4.72471 5.79046 5.132 5.40531C5.53929 5.02016 6.09169 4.80378 6.66768 4.80378ZM4.4959 23.2875H26.2137V39.7175C26.2137 40.2622 25.9849 40.7846 25.5776 41.1697C25.1703 41.5549 24.6179 41.7712 24.0419 41.7712H6.66768C6.09169 41.7712 5.53929 41.5549 5.132 41.1697C4.72471 40.7846 4.4959 40.2622 4.4959 39.7175V23.2875Z" fill="white"/>
</svg>
