<svg width="52" height="48" viewBox="0 0 52 48" fill="none" xmlns="http://www.w3.org/2000/svg">
<path d="M50.2643 1.13125C49.5913 0.565468 48.7791 0.1947 47.9142 0.058407C47.0492 -0.0778857 46.1639 0.025399 45.3524 0.357266L2.99116 17.6404C2.08549 18.0171 1.31456 18.6632 0.780659 19.493C0.246759 20.3228 -0.0248767 21.297 0.00179129 22.2864C0.0284592 23.2758 0.35217 24.2336 0.929976 25.0327C1.50778 25.8319 2.31237 26.4346 3.23699 26.761L11.8057 29.7733L16.5805 45.7354C16.646 45.9484 16.7406 46.151 16.8618 46.3374C16.8807 46.366 16.9067 46.3852 16.9256 46.4162C17.0649 46.6122 17.2331 46.7854 17.4244 46.9298C17.4778 46.9721 17.533 47.0119 17.5898 47.0492C17.8137 47.1994 18.0616 47.3093 18.3226 47.3741L18.3533 47.3765L18.3675 47.3837C18.5255 47.4157 18.6862 47.4317 18.8474 47.4315L18.8899 47.4243C19.132 47.4202 19.372 47.3783 19.6014 47.3001C19.6558 47.281 19.7007 47.2523 19.7527 47.2284C19.9243 47.1573 20.087 47.0659 20.2373 46.9561C20.357 46.8533 20.4768 46.7506 20.5966 46.6479L26.9835 39.5221L36.5095 46.98C37.348 47.64 38.3801 47.9989 39.443 48C40.5569 47.9987 41.6364 47.6103 42.5006 46.9001C43.3648 46.1898 43.9611 45.2009 44.1894 44.099L51.9024 5.83723C52.0769 4.97643 52.0166 4.08391 51.7281 3.25504C51.4396 2.42616 50.9336 1.69208 50.2643 1.13125ZM19.7834 30.5329C19.4561 30.8631 19.2324 31.2836 19.1405 31.7417L18.4077 35.3344L16.5545 29.1402L26.1633 24.0831L19.7834 30.5329ZM39.4075 43.2032L28.1488 34.3885C27.6777 34.0211 27.087 33.8466 26.4943 33.8997C25.9015 33.9528 25.3504 34.2297 24.9506 34.6751L22.9036 36.9565L23.6269 33.4043L40.3696 16.4842C40.7668 16.0803 41.0082 15.5463 41.0502 14.9784C41.0922 14.4105 40.9321 13.8461 40.5987 13.3869C40.2653 12.9278 39.7806 12.6042 39.2319 12.4743C38.6833 12.3445 38.1067 12.417 37.6063 12.6788L13.5785 25.3205L4.77345 22.0645L47.2718 4.88648L39.4075 43.2032Z" fill="#fff"/>
</svg>
