<svg width="46" height="46" viewBox="0 0 46 46" fill="none" xmlns="http://www.w3.org/2000/svg">
<path d="M12.9586 0.400424C9.96191 -0.357602 6.82121 -0.0360148 4.36051 1.33647C1.8537 2.73193 0.0960596 5.207 0.00961808 8.51762C-0.122926 13.6917 1.07861 20.6346 5.85018 28.7833C10.5612 36.8316 15.7621 41.6554 20.0784 44.521C22.8042 46.3328 25.8153 46.3816 28.3884 45.2015C30.924 44.0386 32.9813 41.7157 34.0503 38.8358C34.3163 38.1195 34.4232 37.3542 34.3635 36.5928C34.3038 35.8313 34.079 35.0919 33.7045 34.4255L30.9557 29.5385C30.1107 28.0344 28.7508 26.8835 27.1245 26.2962C25.4982 25.7089 23.7141 25.7244 22.0983 26.3399L20.1793 27.072C19.2486 27.4252 18.3928 27.2615 17.9088 26.7849C16.2808 25.1913 15.1167 23.0292 14.5894 20.6977C14.4223 19.9627 14.7623 19.0955 15.5748 18.4839L17.3066 17.1804C18.7065 16.1276 19.673 14.6021 20.0247 12.8899C20.3764 11.1777 20.0892 9.39641 19.2169 7.88019L16.4162 3.01332C16.0452 2.36898 15.5479 1.80561 14.9538 1.35673C14.3598 0.907843 13.6813 0.582624 12.9586 0.400424ZM2.891 8.59515C2.94863 6.37275 4.07813 4.78492 5.76662 3.84313C7.50121 2.8755 9.86971 2.57975 12.2497 3.18273C12.5985 3.2705 12.9259 3.42734 13.2125 3.6439C13.4992 3.86046 13.7391 4.1323 13.9181 4.44323L16.7159 9.3101C17.2392 10.2195 17.4117 11.2878 17.2011 12.3148C16.9905 13.3419 16.4113 14.2571 15.572 14.8891L13.8403 16.1926C12.3419 17.3182 11.3046 19.2477 11.7772 21.3294C12.4169 24.149 13.8316 26.8222 15.8889 28.835C17.393 30.3051 19.5367 30.3913 21.208 29.7538L23.127 29.0217C24.0965 28.6518 25.1673 28.6421 26.1434 28.9943C27.1196 29.3465 27.9359 30.0371 28.4431 30.9397L31.1891 35.8295C31.5348 36.444 31.5925 37.1791 31.3475 37.8395C30.5119 40.0934 28.9416 41.7846 27.1839 42.5915C25.4638 43.3811 23.5188 43.3581 21.6776 42.1321C17.7272 39.5077 12.8318 35.0083 8.33682 27.3362C3.83898 19.6411 2.77286 13.2266 2.89388 8.59515H2.891ZM30.8462 0.245374C30.5122 0.0603248 30.1182 0.0150529 29.7507 0.119517C29.3833 0.223981 29.0725 0.469625 28.8868 0.802408C28.7011 1.13519 28.6557 1.52786 28.7605 1.89402C28.8654 2.26018 29.1119 2.56985 29.4458 2.7549L30.5523 3.36936C34.0088 5.28282 36.9491 8.00179 39.1217 11.2939C41.2944 14.586 42.6349 18.3534 43.0287 22.2741L43.1209 23.1785C43.1317 23.3721 43.1819 23.5615 43.2682 23.7353C43.3545 23.909 43.4753 24.0636 43.6232 24.1896C43.7711 24.3155 43.943 24.4104 44.1287 24.4683C44.3144 24.5263 44.5099 24.5461 44.7035 24.5267C44.8971 24.5073 45.0848 24.449 45.2551 24.3554C45.4255 24.2617 45.5751 24.1347 45.6948 23.9819C45.8146 23.829 45.902 23.6536 45.9519 23.4662C46.0017 23.2788 46.013 23.0833 45.985 22.8914L45.8956 21.9898C45.456 17.607 43.9578 13.3955 41.5292 9.7153C39.1006 6.03511 35.8138 2.99571 31.9498 0.856964L30.8462 0.245374ZM27.4692 7.94049C27.666 7.61423 27.9848 7.37922 28.3555 7.28714C28.7262 7.19507 29.1184 7.25347 29.4458 7.44949L29.8031 7.66197C32.129 9.05155 34.1243 10.9279 35.6511 13.1612C37.1779 15.3946 38.1997 17.9317 38.6461 20.5972L38.7729 21.3639C38.8091 21.5519 38.8073 21.7452 38.7675 21.9325C38.7276 22.1198 38.6506 22.2972 38.5409 22.4544C38.4313 22.6116 38.2912 22.7453 38.1288 22.8477C37.9665 22.9502 37.7853 23.0192 37.5958 23.0508C37.4064 23.0824 37.2125 23.0759 37.0255 23.0317C36.8386 22.9875 36.6624 22.9065 36.5074 22.7935C36.3524 22.6805 36.2216 22.5377 36.1227 22.3735C36.0239 22.2094 35.959 22.0272 35.9318 21.8376L35.8022 21.071C35.4251 18.816 34.5613 16.6694 33.2703 14.7797C31.9793 12.8899 30.292 11.3019 28.325 10.1256L27.9677 9.91021C27.8053 9.81333 27.6637 9.68552 27.5509 9.53409C27.4382 9.38266 27.3564 9.21057 27.3104 9.02766C27.2644 8.84474 27.255 8.65458 27.2827 8.46804C27.3105 8.28151 27.3719 8.10224 27.4692 7.94049Z" fill="#fff"/>
</svg>
